PathFileType	4	(x/y/z)	S01_PSF_T11.trc
DataRate	CameraRate	NumFrames	NumMarkers	Units	OrigDataRate	OrigDataStartFrame	OrigNumFrames
240	240	7	51	mm	240	382	436
Frame#	Time	Sternum			R.Acromium			L.Acromium			Top.Head			R.ASIS			L.ASIS			R.PSIS			L.PSIS			R.Great.Tro			L.Great.Tro			R.Iliac.Crest			L.Iliac.Crest			V.Sacral			R.Thigh.Upper.Post			R.Thigh.Lower.Ant			R.Thigh.Lower.Post			R.Thigh.Upper.Ant			R.Knee.Lat			R.Knee.Med			R.Shank.Upper.Post			R.Shank.Lower.Ant			R.Shank.Lower.Post			R.Shank.Upper.Ant			R.Ankle.Lat			R.Ankle.Med			R.Heel.Upper			R.Heel.Med			R.Heel.Lat			R.Toe.Lat			R.Toe.Med			R.Toe.Tip			L.Thigh.Upper.Post			L.Thigh.Lower.Ant			L.Thigh.Lower.Post			L.Thigh.Upper.Ant			L.Knee.Lat			L.Knee.Med			L.Shank.Upper.Post			L.Shank.Lower.Ant			L.Shank.Lower.Post			L.Shank.Upper.Ant			L.Ankle.Lat			L.Ankle.Med			L.Heel.Upper			L.Heel.Med			L.Heel.Lat			L.Toe.Lat			L.Toe.Med			L.Toe.Tip			Cervical.Spine			Back			
		X1	Y1	Z1	X2	Y2	Z2	X3	Y3	Z3	X4	Y4	Z4	X5	Y5	Z5	X6	Y6	Z6	X7	Y7	Z7	X8	Y8	Z8	X9	Y9	Z9	X10	Y10	Z10	X11	Y11	Z11	X12	Y12	Z12	X13	Y13	Z13	X14	Y14	Z14	X15	Y15	Z15	X16	Y16	Z16	X17	Y17	Z17	X18	Y18	Z18	X19	Y19	Z19	X20	Y20	Z20	X21	Y21	Z21	X22	Y22	Z22	X23	Y23	Z23	X24	Y24	Z24	X25	Y25	Z25	X26	Y26	Z26	X27	Y27	Z27	X28	Y28	Z28	X29	Y29	Z29	X30	Y30	Z30	X31	Y31	Z31	X32	Y32	Z32	X33	Y33	Z33	X34	Y34	Z34	X35	Y35	Z35	X36	Y36	Z36	X37	Y37	Z37	X38	Y38	Z38	X39	Y39	Z39	X40	Y40	Z40	X41	Y41	Z41	X42	Y42	Z42	X43	Y43	Z43	X44	Y44	Z44	X45	Y45	Z45	X46	Y46	Z46	X47	Y47	Z47	X48	Y48	Z48	X49	Y49	Z49	X50	Y50	Z50	X51	Y51	Z51	

382	1.5875	742.72	1239.5	326.57	632.52	1491.3	502.35	632.71	1514.8	171.32	719	1806.7	341.19	682.84	995.96	472.2	687.46	995.18	202.85	446.57	1032.7	380.75	442.13	1041.3	277.57	609	942.39	553.26	570.35	955.55	125.1	590.78	1089.7	536.58	576.89	1076.5	129.23	430.3	1001.9	323.95	724.22	655.83	526.43	817.7	623.47	496.67	764.44	579.25	502.92	779.53	703.15	519.53	811.09	535.75	498.06	814.07	538.49	350.53	808.19	368.49	513.18	894.72	311.19	475.19	827.67	301.15	501	871.02	378.96	493.12	903.47	109.68	465.93	933.51	130.43	376.03	853.16	58.796	402.41	878.82	38.155	373.86	873.05	34.229	437.5	1049.8	86.957	501.7	1079.5	112.48	383.85	1127.3	153.78	441.16	464.06	698.62	156.62	526.89	608.08	157.37	450.08	609.99	174.6	533.16	701.54	136.68	466.05	514.17	162.99	494.51	509.9	306.39	360.29	398.96	151.11	385.17	293.84	177.45	332.88	326.41	156.79	413.26	364.85	166.99	242.84	126.16	203.98	270.6	134.96	298.71	165.7	107.27	249.79	172.5	82.524	284.38	170.48	79.277	221.66	374.7	38.722	187.2	401.49	44.335	309.1	465.04	47.422	257.99	553.26	1566.2	338.6	443.43	1258.9	340.24
383	1.5917	748.63	1238.8	327.09	638.44	1490.2	503.59	638.2	1514.3	172.54	724.65	1806	342.91	689.29	995.34	472.44	693.37	994.34	203.08	452.74	1031.9	381.59	448.1	1040.4	278.43	615.75	941.79	553.66	575.96	954.68	125.63	597.21	1088.8	537.22	582.44	1075.8	129.77	436.39	1001	324.87	730.86	655.39	526.08	824.29	623	496.24	771.02	578.79	502.54	786.21	702.66	519.27	817.61	535.09	497.63	820.38	538.15	350.45	813.53	367.78	512.66	899.38	309.67	474.35	832.34	300.26	500.43	876.37	377.66	492.35	905.82	108.59	465.24	935.9	128.47	375.15	854.53	58.896	401.85	879.65	37.546	373.35	873.94	34.123	437.04	1051.6	83.63	500.56	1081.6	108.32	382.58	1130.2	148.84	439.66	469.79	697.87	157.24	532.61	607.34	157.6	455.9	609.21	175.17	538.81	700.85	137.09	471.75	513.48	163.29	500.67	508.97	306.57	364.78	399.46	151.35	388.46	294.02	177.48	336.52	327.22	156.96	417.37	364.71	167.12	244.26	127.78	203.89	272.14	136.41	298.56	166.88	109.91	249.72	173.4	85.192	284.34	171.33	81.817	221.64	374.85	38.774	187.23	401.66	44.325	309.12	465.23	47.13	257.99	558.92	1565.4	340.07	449.28	1258	341.21
384	1.5958	754.57	1238.3	327.6	644.38	1489.1	504.84	643.68	1514	173.78	730.32	1805.4	344.66	695.79	994.8	472.69	699.3	993.57	203.33	458.94	1031.1	382.46	454.13	1039.5	279.31	622.57	941.24	554.07	581.63	953.84	126.17	603.71	1087.9	537.89	588.04	1075	130.33	442.53	1000.2	325.81	737.43	654.97	525.75	830.8	622.52	495.83	777.52	578.35	502.19	792.83	702.19	519.04	824.06	534.47	497.23	826.56	537.81	350.37	818.83	367.12	512.18	904.01	308.22	473.56	836.98	299.43	499.91	881.67	376.42	491.63	908.12	107.58	464.63	938.24	126.58	374.35	855.82	59.127	401.35	880.37	37.069	372.9	874.73	34.127	436.64	1053.4	80.29	499.51	1083.5	104.14	381.41	1133.1	143.8	438.28	475.62	697.12	157.87	538.45	606.62	157.82	461.86	608.44	175.73	544.56	700.19	137.49	477.6	512.79	163.57	507.01	508.03	306.73	369.41	400.02	151.59	391.87	294.27	177.49	340.29	328.11	157.12	421.6	364.61	167.22	245.8	129.52	203.77	273.82	137.96	298.39	168.21	112.73	249.65	174.42	88.051	284.31	172.28	84.539	221.62	375	38.831	187.25	401.84	44.331	309.13	465.43	46.831	257.98	564.58	1564.7	341.57	455.16	1257.3	342.21
385	1.6	760.54	1237.8	328.11	650.34	1488.1	506.11	649.16	1513.7	175.03	736.01	1804.8	346.43	702.32	994.35	472.94	705.26	992.87	203.61	465.18	1030.4	383.35	460.19	1038.7	280.21	629.43	940.77	554.51	587.34	953.05	126.73	610.28	1087.2	538.58	593.7	1074.4	130.89	448.71	999.38	326.79	743.94	654.59	525.44	837.25	622.04	495.46	783.92	577.93	501.86	799.41	701.73	518.83	830.46	533.9	496.86	832.6	537.48	350.29	824.12	366.54	511.75	908.61	306.84	472.82	841.6	298.67	499.45	886.95	375.26	490.95	910.37	106.65	464.1	940.56	124.79	373.64	857.04	59.478	400.93	881.03	36.723	372.53	875.44	34.233	436.3	1055.1	76.959	498.58	1085.4	99.972	380.34	1135.9	138.71	437.03	481.55	696.37	158.49	544.41	605.93	158.01	467.95	607.65	176.28	550.41	699.56	137.89	483.6	512.12	163.81	513.53	507.08	306.85	374.19	400.64	151.81	395.4	294.59	177.46	344.2	329.07	157.28	425.97	364.57	167.28	247.48	131.38	203.63	275.65	139.61	298.21	169.68	115.74	249.58	175.58	91.109	284.28	173.34	87.453	221.62	375.16	38.894	187.28	402.02	44.355	309.16	465.62	46.524	257.97	570.26	1564.1	343.1	461.06	1256.5	343.23
386	1.6042	766.53	1237.5	328.62	656.33	1487.2	507.39	654.62	1513.5	176.3	741.71	1804.4	348.23	708.88	993.98	473.2	711.24	992.24	203.9	471.46	1029.8	384.26	466.29	1037.9	281.13	636.34	940.36	554.96	593.09	952.29	127.31	616.93	1086.5	539.29	599.41	1073.8	131.47	454.93	998.66	327.79	750.4	654.25	525.17	843.63	621.59	495.12	790.26	577.54	501.57	805.94	701.3	518.65	836.8	533.39	496.53	838.51	537.16	350.23	829.39	366.03	511.38	913.19	305.55	472.15	846.21	298	499.06	892.2	374.17	490.32	912.58	105.79	463.64	942.85	123.1	373.01	858.21	59.936	400.58	881.62	36.505	372.22	876.08	34.431	436.02	1056.7	73.656	497.75	1087.2	95.833	379.4	1138.6	133.59	435.92	487.59	695.62	159.12	550.51	605.26	158.17	474.18	606.87	176.81	556.37	698.96	138.28	489.78	511.47	164.02	520.24	506.13	306.92	379.13	401.33	152.02	399.07	294.98	177.4	348.26	330.12	157.43	430.49	364.59	167.31	249.29	133.36	203.48	277.65	141.35	298	171.31	118.96	249.52	176.89	94.375	284.26	174.54	90.568	221.63	375.34	38.965	187.3	402.2	44.399	309.18	465.82	46.207	257.96	575.95	1563.6	344.64	466.98	1255.9	344.27
387	1.6083	772.56	1237.2	329.12	662.34	1486.3	508.68	660.08	1513.4	177.56	747.42	1804	350.06	715.46	993.69	473.45	717.24	991.7	204.22	477.76	1029.3	385.18	472.42	1037.2	282.05	643.28	940.04	555.43	598.87	951.58	127.9	623.64	1085.9	540.02	605.18	1073.3	132.05	461.18	998	328.8	756.82	653.97	524.95	849.96	621.17	494.82	796.54	577.2	501.32	812.45	700.91	518.51	843.11	532.96	496.24	844.3	536.86	350.18	834.66	365.61	511.09	917.75	304.36	471.55	850.81	297.43	498.76	897.44	373.18	489.75	914.74	105.02	463.27	945.1	121.52	372.47	859.35	60.486	400.29	882.18	36.409	371.97	876.68	34.706	435.8	1058.1	70.404	497.04	1089	91.753	378.57	1141.3	128.48	434.94	493.74	694.87	159.73	556.74	604.61	158.29	480.56	606.07	177.32	562.45	698.38	138.66	496.13	510.82	164.18	527.16	505.16	306.95	384.24	402.09	152.21	402.88	295.44	177.3	352.47	331.25	157.56	435.17	364.66	167.29	251.25	135.46	203.3	279.82	143.19	297.77	173.13	122.39	249.46	178.37	97.86	284.26	175.89	93.892	221.65	375.54	39.047	187.33	402.39	44.466	309.21	466.02	45.876	257.94	581.66	1563.1	346.21	472.91	1255.3	345.32
388	1.6125	778.6	1237	329.61	668.38	1485.5	509.98	665.52	1513.3	178.84	753.15	1803.6	351.91	722.05	993.5	473.72	723.23	991.25	204.56	484.07	1028.9	386.11	478.59	1036.6	282.99	650.23	939.8	555.92	604.7	950.91	128.5	630.41	1085.4	540.76	611.01	1072.9	132.64	467.46	997.42	329.84	763.2	653.74	524.78	856.26	620.79	494.58	802.77	576.91	501.13	818.92	700.58	518.42	849.39	532.61	496.01	849.97	536.59	350.15	839.92	365.28	510.89	922.28	303.25	471.01	855.41	296.94	498.53	902.67	372.26	489.25	916.86	104.34	462.97	947.32	120.06	372.02	860.44	61.109	400.08	882.7	36.424	371.78	877.23	35.046	435.64	1059.5	67.225	496.44	1090.6	87.758	377.86	1143.9	123.42	434.1	500	694.12	160.34	563.13	603.98	158.38	487.09	605.27	177.8	568.64	697.84	139.02	502.66	510.19	164.29	534.28	504.18	306.91	389.53	402.9	152.38	406.86	295.97	177.16	356.87	332.46	157.68	440.01	364.79	167.21	253.38	137.68	203.1	282.19	145.13	297.52	175.15	126.04	249.41	180.04	101.57	284.26	177.4	97.435	221.69	375.75	39.144	187.36	402.58	44.558	309.24	466.22	45.53	257.91	587.37	1562.7	347.79	478.86	1254.8	346.4
